<?xml version="1.0" encoding="utf-8"?>
<!-- Generator: Adobe Illustrator 18.1.1, SVG Export Plug-In . SVG Version: 6.00 Build 0)  -->
<!DOCTYPE svg PUBLIC "-//W3C//DTD SVG 1.1//EN" "http://www.w3.org/Graphics/SVG/1.1/DTD/svg11.dtd">
<svg version="1.1" id="Layer_1" xmlns="http://www.w3.org/2000/svg" xmlns:xlink="http://www.w3.org/1999/xlink" x="0px" y="0px"
	 width="180px" height="144px" viewBox="108 108 180 144" enable-background="new 108 108 180 144" xml:space="preserve">
<g>
	<rect x="170.7" y="145.8" fill="none" width="92.3" height="91.1"/>
	<path fill="#FFFFFF" d="M222,182.1c-0.1,0.4-0.3,0.9-0.5,1.4c-0.5,1.3-0.9,2.2-1.1,2.5c-0.1,0.2-0.7,1.1-1.8,2.6
		c0,0.1,0,0.1-0.1,0.1c-0.1,0-0.1,0.1-0.1,0.1c-0.8,1.4-1.2,2.1-1.3,2.2c-0.6,0.7-1.1,1.3-1.5,2c-1.6,2.6-3.2,4.9-4.7,7l-0.3,0.4
		c-0.7,1.1-1.3,1.9-1.9,2.5c-0.7,1-2.1,2.1-4.3,3.2c-0.3,0.1-0.4,0.2-0.6,0.2c-1.7,0.3-2.6,0.5-2.8,0.6c-0.3,0.2-0.8,0.3-1.5,0.3
		c-0.7,0-1.1,0-1.4,0.1c-2.2-0.1-3.8-0.4-4.8-0.9c-1.8-0.8-3.2-1.7-4-2.8c0-0.1-0.4-0.5-1.3-1.4c-0.3-0.3-0.5-0.7-0.5-1.1
		c0.1-0.3-0.1-0.7-0.4-1.2c-0.6-1-0.9-1.9-1-2.5c0-0.3-0.2-0.9-0.7-2c-0.3-0.9-0.6-1.7-0.7-2.5c-0.1-0.4-0.2-1.3-0.4-2.6
		c-0.2-1.4-0.3-2.5-0.4-3.2c-0.1-0.1-0.1-1.1-0.2-2.8c0-1-0.1-1.6-0.2-1.9c0-0.6-0.1-1.4-0.2-2.5c-0.2-1-0.2-1.8-0.2-2.2
		c-0.1-1.8-0.2-3-0.3-3.4c0-0.1,0-0.5,0-1.2v-0.5c0-0.1-0.1-0.3-0.2-0.4c-0.2-0.1-0.4-0.3-0.8-0.5c-0.4-0.1-0.7-0.3-1-0.4
		c-0.3-0.1-0.7-0.2-1.1-0.4c-0.5-0.2-0.8-0.3-0.9-0.3c-2-0.7-3.8-0.5-5.3,0.7c-0.7,0.7-2.2,1.9-4.5,3.8c-0.1,0-0.2,0-0.4,0.1
		l-0.1-0.2c0.2-0.3,0.5-0.7,1-1.3c0.5-0.6,0.9-1.1,1.1-1.5c0.3-0.4,0.8-0.9,1.4-1.3c1-0.7,1.9-1.5,2.5-2.2c0.2-0.2,0.5-0.5,0.9-0.9
		c0.4-0.4,0.7-0.7,0.8-0.8c0.9-0.9,2-1.4,3.3-1.4c2.1-0.1,3.2,0,3.2,0.1v-0.6c0-0.4,0-0.6,0-0.7c0.2-0.5,0.3-1.7,0.4-3.5
		c0-1.7,0.1-3.1,0.3-4.1c0.3-2.7,0.4-4.7,0.2-6.1c-0.1-0.4,0-1.5,0.3-3.2c0.1-0.7,0.5-1.1,1.4-1.2c0.9-0.1,1.8,0.2,2.5,0.7
		c1.6,1,2.9,2.1,3.9,3c1.2,1.2,2.1,3,2.5,5.2c0.4,1.8,0.7,2.8,0.9,3.1c0.1,0.1,0.1,0.3,0.2,0.6c0,0.3,0.1,1.5,0.4,3.7
		c0.3,2.2,0.4,3.9,0.3,5.1c-0.1,0.3-0.1,0.4,0,0.5c0.1,0.4,0.2,1.1,0.2,2c0,0.9,0.1,1.4,0.1,1.8c0,0.1,0,0.4,0.1,1
		c0.7,0.2,1.3,0.3,2.1,0.4c1.3,0.1,2.5-0.1,3.6-0.8c1.7-1,3.3-2.3,4.9-3.9c0.3-0.3,0.5-0.5,0.8-0.7c0.3-0.1,0.5-0.1,0.7,0.1
		c-0.3,0.7-0.7,1.6-1.3,2.5c-0.3,0.4-0.8,1.2-1.5,2.2c-0.7,1-1.2,1.8-1.5,2.3c-0.2,0.3-0.3,0.5-0.4,0.5c-0.3,0.2-0.6,0.4-0.9,0.6
		c-0.3,0.2-0.8,0.8-1.7,1.9c-1.8,0.8-2.7,1.2-2.8,1.2c-0.7,0.2-1.2,0.3-1.5,0.4c0.1,0.5,0.1,0.9,0.2,1.3l0.1,0.1
		c-0.1,0.6-0.2,0.9-0.2,1.1c0,0.1,0.1,0.4,0.2,1s0.2,0.8,0.2,0.9c0.2,0.9,0.3,1.4,0.2,1.6c0,0.3,0.1,0.7,0.1,1.2
		c0.1,0.6,0.1,1,0.1,1.2c-0.1,0.5,0,1,0.2,1.6c0.2,0.6,0.2,1.2,0,1.8c-0.1,0.3-0.1,0.4,0,0.5c0.2,0.4,0.3,1.2,0.2,2.5
		c-0.1,0.3-0.1,0.7,0.1,1.3c0.1,0.6,0.1,1,0.1,1.4c-0.1,0.1,0,0.2,0.1,0.5c0.6,1.2,1,2.1,1.4,2.8c0.3,0.2,1.1,0.4,2.3,0.8
		c1.2-0.2,2.5-0.9,3.6-2c1.4-1.2,2.8-2.8,4.1-4.6c2.1-2.8,4.4-5.2,7-7.2c1-0.8,2.1-2,3.3-3.6c0.1-0.1,0.1-0.3,0.2-0.5
		s0.2-0.4,0.2-0.7c0.1-0.3,0.1-0.4,0.2-0.6l0.3-0.1C221.9,181.9,222,182,222,182.1z"/>
</g>
<ellipse fill="#048C80" cx="196.5" cy="176.2" rx="48.6" ry="45.2"/>
<rect x="181" y="144.2" fill="none" width="89.7" height="88.6"/>
<path fill="#FFFFFF" d="M201.4,201.3c0.6-0.4,1-0.6,1-0.6c1.3-1.1,2.1-1.8,2.5-2.3c0.6-0.7,1.5-1.7,2.6-3.1c0.1-0.1,0.1-0.3,0.3-0.6
	c0.1-0.3,0.2-0.4,0.3-0.5c0.9-1.4,1.8-3.3,2.7-5.3c0.4-0.9,1.2-2.3,2.3-4.2c0.6-0.9,0.9-1.6,1-2l0.2-0.3c0.5-0.1,0.9,0,1.2,0.4
	c0.1,0.7,0,1.6-0.5,2.6c-0.3,0.8-0.8,1.8-1.4,3.1c-0.6,1.3-1,2.2-1.2,2.6c-0.1,0.1-0.1,0.2-0.1,0.3s-0.1,0.3-0.1,0.3
	c-0.3,0.9-0.7,1.6-1,2c-0.3,0.4-0.8,1.2-1.4,2.5c-0.3,0.5-0.6,1-1,1.4c-0.4,0.4-1.2,1.4-2.2,2.8c-0.1,0.1-0.1,0.2-0.1,0.4
	c0,0.2-0.1,0.4-0.2,0.5c-1.2,0.7-2,1.1-2.2,1.2c-0.9,0.4-2,0.8-3.3,0.9c-0.5,0.1-0.9,0.1-1.2,0.3c-0.9,0.3-2.1,0.4-3.6,0.4
	c-0.6-0.1-1-0.1-1.4-0.3c-0.3-0.1-0.6-0.3-0.9-0.4c-1-0.3-2.3-1-3.9-2.2c0.1,0,0.1-0.1,0.3-0.1c0.1-0.1,0.2-0.2,0.3-0.2
	c-0.3-0.4-0.6-0.9-1-1.5c-0.5-0.7-0.8-1.2-0.9-1.3c-1.2-1.9-2.1-4-2.8-6.4c-0.3-1.3-0.4-2.4-0.4-3.1c-0.1-0.5-0.2-1.4-0.2-2.5
	c0-1.2-0.1-2-0.2-2.6c-0.1-3.4-0.1-5.5-0.1-6.3c0-1.2,0.1-1.9,0.2-2.2c0.1-0.2,0.1-0.4,0-0.6c-0.3-0.7-0.3-1.7,0-3
	c0.4-2.4,0.9-4.4,1.3-5.9c0.1-0.1,0.3-0.1,0.6,0c0.3,0,0.4,0,0.6,0.1c1.2,0.3,2,0.5,2.4,0.8c0.2,0.2,0.4,0.3,0.7,0.4
	c0.6,0.1,1.2,0.6,1.8,1.3c0.3,0.3,0.4,0.5,0.5,0.6c0.8,0.6,1.4,1.7,1.8,3.3c0.1,0.3,0.2,0.7,0.3,1.3c0.1,0.5,0.3,1,0.4,1.5
	c0.1,0.4,0.3,0.9,0.4,1.2c0.1,0.2,0.1,0.5,0.2,0.8c0.1,0.4,0.2,0.6,0.2,0.8c0.2,0.7,0.2,1.3,0,1.7c-0.1,0.2-0.1,0.5,0,0.9
	c0,0.4,0.1,1.5,0.4,3.1c0.1,0.8,0.2,1.3,0.2,1.3c-0.1,1.6,0.1,3.2,0.7,4.8c0,0.1,0,0.3-0.1,0.5c0,0.2-0.1,0.4-0.1,0.5
	c0.1,0.3,0.2,0.5,0.2,0.9c0.1,0.5,0.2,1,0.3,1.6c0,0.2,0,0.4,0,0.5c-0.2,0.3-0.2,0.7,0,1.2c0.1,0.1,0.1,0.1,0.1,0.2
	c-0.1,1.2,0.2,2.3,0.8,3.4c0.1,0.1,0.1,0.4,0.2,0.9c0.1,0.8,0.5,1.3,1.2,1.5c0.2,0.1,0.5,0.2,0.9,0.3
	C201,201.2,201.3,201.3,201.4,201.3z M189.4,160.9c0,0.1,0,0.3,0,0.5c-0.7,0.3-1.3,0.4-1.7,0.3c-0.1-0.1-0.2-0.2-0.4-0.5
	c-0.2-0.3-0.4-0.4-0.5-0.5c-0.1,0-0.4-0.2-0.7-0.7c0-0.1-0.1-0.3-0.5-0.8c0.1-0.3,0.1-0.4,0.2-0.5c-0.1,0-0.1-0.1-0.2-0.3
	c-0.1-0.2-0.2-0.4-0.2-0.5c0.1-0.3,0.1-0.4,0.1-0.5c-0.1-0.1-0.1-0.2-0.1-0.3c0-0.1-0.1-0.3-0.1-0.4c0-0.1,0-0.3,0.1-0.6
	c0-0.3,0.1-0.5,0.1-0.6c-0.1-0.3-0.1-0.7-0.1-1.2c-0.1-0.8,0-1.7,0.2-2.6c0-0.1,0-0.6,0-1.5v-0.3c-0.1-0.9-0.1-1.4-0.1-1.5l0.2-1.4
	c0-0.1,0-0.1-0.1-0.2c-0.1-0.1-0.1-0.2-0.2-0.2c0.2-0.4,0.3-0.7,0.4-0.8c0-0.1,0-0.4,0-0.9c0.1,0,0.1-0.1,0.3-0.1
	c0.1-0.1,0.2-0.2,0.3-0.2c0.4-0.3,0.8-0.3,1.2-0.1c1,0.4,1.7,0.7,2.1,0.9c1,0.5,1.9,1.4,2.6,2.7c0.2,0.3,0.4,0.7,0.6,1.2
	c0.3,0.5,0.4,1,0.4,1.6c0,0.3,0,0.8,0.1,1.3c0.1,0.6,0.1,1,0.1,1.2c0.1,0.4,0.2,0.7,0.2,1c0,0.1,0,0.1,0,0.3c0,0.3,0,0.6,0,0.8
	c-0.1,0.4-0.1,0.8-0.1,1.2c0.1,0.4,0.1,1-0.1,1.7c0,0.1,0,0.2-0.1,0.3c-0.4,0.4-0.6,0.7-0.7,0.8c-0.2,0.3-0.4,0.5-0.7,0.5
	c-0.3,0.1-0.6,0.2-0.8,0.4c-0.3,0.3-0.5,0.4-0.7,0.4l-0.6,0.1C189.8,160.8,189.7,160.9,189.4,160.9z"/>
<ellipse fill="#048C80" cx="196.4" cy="174.8" rx="48.3" ry="44.9"/>
<rect x="178.8" y="139" fill="none" width="89.2" height="88.1"/>
<text transform="matrix(1 0 0 1 178.8237 197.2002)" fill="#FFFFFF" font-family="'MovusBrushPen'" font-size="94.6789">f</text>
</svg>
