<?xml version="1.0" encoding="utf-8"?>
<!-- Generator: Adobe Illustrator 18.1.1, SVG Export Plug-In . SVG Version: 6.00 Build 0)  -->
<!DOCTYPE svg PUBLIC "-//W3C//DTD SVG 1.1//EN" "http://www.w3.org/Graphics/SVG/1.1/DTD/svg11.dtd">
<svg version="1.1" id="Layer_1" xmlns="http://www.w3.org/2000/svg" xmlns:xlink="http://www.w3.org/1999/xlink" x="0px" y="0px"
	 width="396px" height="360px" viewBox="0 0 396 360" enable-background="new 0 0 396 360" xml:space="preserve">
<ellipse fill="#048C80" cx="199.1" cy="170.1" rx="169" ry="156.9"/>
<rect x="136" y="48.6" fill="none" width="311.9" height="308"/>
<g>
	<path fill="#FFFFFF" d="M275.4,245.6c0.8,4.9,1.1,8.3,1.9,11.7c0.6,2.4,0,3.5-2.4,4.4c-12.4,4.9-12.5,5.1-19.4-6.4
		c-1.9-3.2-4-4.5-7.5-4.1c-1.5,0.2-3.2,0.4-4.5-0.1c-7.2-3.2-11.4,0.9-15.2,5.9c-3.2,4.3-6.2,4.7-10.7,1.6
		c-8.3-5.7-8.7-5.5-4.6-14.7c2-4.5,0.7-7.4-1.3-11.7c-4-8.7-10.4-11-18.8-10.7c-3.5,0.1-4.4-1.6-5-4.5c-2.1-11.6-2.2-11.8,9.2-15.2
		c4.2-1.3,7.3-2.9,7.5-7.7c0-0.3,0.1-0.7,0.2-1c5.3-7.6,2.8-14.2-3-20.1c-2.8-2.9-1.7-4.9,0.8-7.4c8.4-8.1,8.4-8.4,17.9-1.8
		c3.4,2.3,6.4,3.3,9.9,0.7c0.5-0.4,1.2-0.6,1.9-0.7c8.5-0.9,12.5-6.1,13.6-14.1c0.5-3.5,2.3-4.8,6.2-4.6
		c11.2,0.7,11.7,0.4,12.7,11.3c0.5,5.6,3.5,7.6,7.3,10.7c6.8,5.5,12.9,5.2,19.8,1.4c3.6-2,5.8-1,8,2.5c6.3,10,6.5,10.1-2.7,17.5
		c-3,2.4-4.4,4.6-2.9,8.4c0.6,1.5,1.1,3.3,0.8,4.9c-1.3,7.1,3.1,9.9,8.4,12.6c7,3.5,6.9,3.7,4.2,10.9c-0.6,1.6-1.3,3.1-1.7,4.7
		c-0.6,2.5-2,4.1-4.6,3.1c-10.3-4.1-17.3,0.8-23.7,8.2C276.6,243.1,275.1,244.5,275.4,245.6z M264.8,207.1
		c-1.5-3.1,0.7-8.3-2.2-11.4c-3-3.2-7.6-6.3-11.8-6.7c-4.2-0.4-9.7,1.6-12.7,4.5c-3,2.9-5,8.5-4.7,12.6c0.4,4.1,3.7,8.6,6.9,11.7
		c3.4,3.3,8.9,0.9,13.4,2.3C255.9,220.7,264.8,210.7,264.8,207.1z"/>
	<path fill="#FFFFFF" d="M186.9,192.4c-9-5.4-13,3.3-18.7,8.1c-3,2.5-0.1,5.3-0.3,7.9c-0.2,2.5,2.4,5.8,0.1,7.5
		c-3,2.2-6.9,3.1-10.5,4.4c-1.5,0.5-2.4-0.9-3.1-2c-1.4-2.1-2.9-4.1-4.1-6.3c-1.2-2.1-2.7-3.3-5.2-2.8c-0.3,0.1-0.7,0.1-1,0
		c-8.3-2.5-14.4,0.4-18.9,7.5c-1,1.6-2.2,1.9-3.7,0.7c-0.4-0.3-0.8-0.6-1.3-0.8c-8.6-4.9-8.8-4.9-5.4-14.3c1.1-3.1,0.9-5.4-1.4-7.6
		c-0.8-0.8-1.8-1.7-2.1-2.7c-2.2-5.9-7-7.1-12.5-6.5c-4.3,0.5-6.6-1-6.5-5.5c0-0.3-0.1-0.6-0.2-1c-1.2-7.3-1.1-7.2,6-9.9
		c2.4-0.9,5.7-0.8,6.8-3.6c1.6-4.2,3.6-8.5,3.6-12.8c0-2.8-3.1-5.7-5.3-8.2c-2.3-2.6-2-4.1,0.4-6.5c6.9-6.8,6.9-7.1,15.2-2
		c3,1.9,5.6,2.5,8.5,0.2c0.4-0.3,0.9-0.6,1.4-0.6c7-0.8,10.2-5.2,10.9-11.8c0.4-4.1,2.7-4.9,6.1-4.3c1,0.2,2,0.2,3,0.2
		c5.3-0.2,6.9,2.7,7.2,7.5c0.7,9.9,11.3,15.9,20.4,12.1c2.3-1,5.2-3.7,7.2-1.9c2.9,2.5,4.9,6.3,7,9.7c0.9,1.5-0.8,2.6-1.8,3.1
		c-8.9,5.1-6.9,13-5.6,20.8c0.5,3.3,4,3.1,5.9,4.8c1.9,1.7,5.8,1.6,6,4.6c0.3,3.8-1.6,7.4-3,10.9C191,193,189.2,192.1,186.9,192.4z
		 M144.3,182.1c5,0.3,12.5-6.1,12.6-10.2c0.1-7.1-5.9-15.7-11.9-15.4c-3.8,0.2-8.4,1.5-10.9,4c-2.4,2.3-3.6,6.9-3.7,10.5
		c-0.1,3.6,3.5,6.2,5.7,9.1C138,182.7,141.8,181.6,144.3,182.1z"/>
	<path fill="#FFFFFF" d="M253.6,134.3c-5.7-2.8-9.5-0.1-13.5,4.3c-2.5,2.8-2.7,5-1.8,8c1.1,3.8,0.4,6-3.8,7.5
		c-3.9,1.4-6.3,1.5-8.6-2.5c-4-6.8-13.1-7.3-18.5-1.5c-1.2,1.3-2,4.1-3.8,3.5c-2.9-0.9-5.7-2.7-8.2-4.5c-1.6-1.1-0.1-2.8,0.4-4.1
		c3-8.5-1.2-15.4-10.2-16.6c-4.5-0.6-7.6-4.9-6.6-9.4c0.5-2.5,3-2.2,4.8-2.9c4.4-1.6,9.3-8.3,8.7-12.7c-0.3-2.5-2.5-4.2-4-6.2
		c-1.2-1.7-2.6-3.5-0.2-5c2.6-1.6,3.3-6.8,8.3-4.2c3.2,1.7,5.6,4.6,10.6,2.7c5.6-2.1,8.4-5.1,9.3-10.5c0.4-2.3,1.5-2.9,3.8-2.8
		c7,0.3,7.4,0.6,8.6,7.8c1,5.7,9.4,10.3,14.9,8c5.7-2.4,9.6-0.6,11.5,5.2c0.7,2-0.8,3-1.9,3.6c-6.7,4-4.5,10.1-3.5,15.5
		c0.6,3.1,4.5,3.5,7.1,4.8c2.5,1.2,2.7,2.8,1.5,4.7C257.2,129.6,258.3,133.8,253.6,134.3z M219.5,126.1c4.3,0.1,10.1-4.5,10.3-8
		c0.2-5.4-4.7-11.5-9.5-11.8c-4.6-0.3-11.1,6.2-11.1,11.1C209.1,120.7,215.4,126,219.5,126.1z"/>
</g>
</svg>
