<?xml version="1.0" encoding="utf-8"?>
<!-- Generator: Adobe Illustrator 18.1.1, SVG Export Plug-In . SVG Version: 6.00 Build 0)  -->
<!DOCTYPE svg PUBLIC "-//W3C//DTD SVG 1.1//EN" "http://www.w3.org/Graphics/SVG/1.1/DTD/svg11.dtd">
<svg version="1.1" id="Layer_1" xmlns="http://www.w3.org/2000/svg" xmlns:xlink="http://www.w3.org/1999/xlink" x="0px" y="0px"
	 width="180px" height="144px" viewBox="-215 325 180 144" enable-background="new -215 325 180 144" xml:space="preserve">
<ellipse fill="#048C80" cx="-125" cy="396.6" rx="28.9" ry="26.8"/>
<g>
	<rect x="-44.3" y="470.8" fill="none" width="92.3" height="91.1"/>
	<path fill="#FFFFFF" d="M7,507.1c-0.1,0.4-0.3,0.9-0.5,1.4c-0.5,1.3-0.9,2.2-1.1,2.5c-0.1,0.2-0.7,1.1-1.8,2.6c0,0.1,0,0.1-0.1,0.1
		s-0.1,0.1-0.1,0.1c-0.8,1.4-1.2,2.1-1.3,2.2c-0.6,0.7-1.1,1.3-1.5,2c-1.6,2.6-3.2,4.9-4.7,7l-0.3,0.4c-0.7,1.1-1.3,1.9-1.9,2.5
		c-0.7,1-2.1,2.1-4.3,3.2c-0.3,0.1-0.4,0.2-0.6,0.2c-1.7,0.3-2.6,0.5-2.8,0.6c-0.3,0.2-0.8,0.3-1.5,0.3s-1.1,0-1.4,0.1
		c-2.2-0.1-3.8-0.4-4.8-0.9c-1.8-0.8-3.2-1.7-4-2.8c0-0.1-0.4-0.5-1.3-1.4c-0.3-0.3-0.5-0.7-0.5-1.1c0.1-0.3-0.1-0.7-0.4-1.2
		c-0.6-1-0.9-1.9-1-2.5c0-0.3-0.2-0.9-0.7-2c-0.3-0.9-0.6-1.7-0.7-2.5c-0.1-0.4-0.2-1.3-0.4-2.6c-0.2-1.4-0.3-2.5-0.4-3.2
		c-0.1-0.1-0.1-1.1-0.2-2.8c0-1-0.1-1.6-0.2-1.9c0-0.6-0.1-1.4-0.2-2.5c-0.2-1-0.2-1.8-0.2-2.2c-0.1-1.8-0.2-3-0.3-3.4
		c0-0.1,0-0.5,0-1.2v-0.5c0-0.1-0.1-0.3-0.2-0.4c-0.2-0.1-0.4-0.3-0.8-0.5c-0.4-0.1-0.7-0.3-1-0.4c-0.3-0.1-0.7-0.2-1.1-0.4
		c-0.5-0.2-0.8-0.3-0.9-0.3c-2-0.7-3.8-0.5-5.3,0.7c-0.7,0.7-2.2,1.9-4.5,3.8c-0.1,0-0.2,0-0.4,0.1l-0.1-0.2c0.2-0.3,0.5-0.7,1-1.3
		c0.5-0.6,0.9-1.1,1.1-1.5c0.3-0.4,0.8-0.9,1.4-1.3c1-0.7,1.9-1.5,2.5-2.2c0.2-0.2,0.5-0.5,0.9-0.9c0.4-0.4,0.7-0.7,0.8-0.8
		c0.9-0.9,2-1.4,3.3-1.4c2.1-0.1,3.2,0,3.2,0.1v-0.6c0-0.4,0-0.6,0-0.7c0.2-0.5,0.3-1.7,0.4-3.5c0-1.7,0.1-3.1,0.3-4.1
		c0.3-2.7,0.4-4.7,0.2-6.1c-0.1-0.4,0-1.5,0.3-3.2c0.1-0.7,0.5-1.1,1.4-1.2c0.9-0.1,1.8,0.2,2.5,0.7c1.6,1,2.9,2.1,3.9,3
		c1.2,1.2,2.1,3,2.5,5.2c0.4,1.8,0.7,2.8,0.9,3.1c0.1,0.1,0.1,0.3,0.2,0.6c0,0.3,0.1,1.5,0.4,3.7c0.3,2.2,0.4,3.9,0.3,5.1
		c-0.1,0.3-0.1,0.4,0,0.5c0.1,0.4,0.2,1.1,0.2,2s0.1,1.4,0.1,1.8c0,0.1,0,0.4,0.1,1c0.7,0.2,1.3,0.3,2.1,0.4
		c1.3,0.1,2.5-0.1,3.6-0.8c1.7-1,3.3-2.3,4.9-3.9c0.3-0.3,0.5-0.5,0.8-0.7c0.3-0.1,0.5-0.1,0.7,0.1c-0.3,0.7-0.7,1.6-1.3,2.5
		c-0.3,0.4-0.8,1.2-1.5,2.2s-1.2,1.8-1.5,2.3c-0.2,0.3-0.3,0.5-0.4,0.5c-0.3,0.2-0.6,0.4-0.9,0.6c-0.3,0.2-0.8,0.8-1.7,1.9
		c-1.8,0.8-2.7,1.2-2.8,1.2c-0.7,0.2-1.2,0.3-1.5,0.4c0.1,0.5,0.1,0.9,0.2,1.3l0.1,0.1c-0.1,0.6-0.2,0.9-0.2,1.1
		c0,0.1,0.1,0.4,0.2,1c0.1,0.6,0.2,0.8,0.2,0.9c0.2,0.9,0.3,1.4,0.2,1.6c0,0.3,0.1,0.7,0.1,1.2c0.1,0.6,0.1,1,0.1,1.2
		c-0.1,0.5,0,1,0.2,1.6c0.2,0.6,0.2,1.2,0,1.8c-0.1,0.3-0.1,0.4,0,0.5c0.2,0.4,0.3,1.2,0.2,2.5c-0.1,0.3-0.1,0.7,0.1,1.3
		c0.1,0.6,0.1,1,0.1,1.4c-0.1,0.1,0,0.2,0.1,0.5c0.6,1.2,1,2.1,1.4,2.8c0.3,0.2,1.1,0.4,2.3,0.8c1.2-0.2,2.5-0.9,3.6-2
		c1.4-1.2,2.8-2.8,4.1-4.6c2.1-2.8,4.4-5.2,7-7.2c1-0.8,2.1-2,3.3-3.6c0.1-0.1,0.1-0.3,0.2-0.5s0.2-0.4,0.2-0.7
		c0.1-0.3,0.1-0.4,0.2-0.6l0.3-0.1C6.9,506.9,7,507,7,507.1z"/>
</g>
<g>
	<rect x="-131.5" y="378.2" fill="none" width="48.4" height="47.8"/>
	<path fill="#FFFFFF" d="M-120.5,409c0.3-0.2,0.5-0.3,0.5-0.3c0.7-0.6,1.1-1,1.3-1.2c0.3-0.4,0.8-0.9,1.4-1.7
		c0.1-0.1,0.1-0.2,0.2-0.3c0.1-0.2,0.1-0.2,0.2-0.3c0.5-0.8,1-1.8,1.5-2.9c0.2-0.5,0.6-1.2,1.2-2.3c0.3-0.5,0.5-0.9,0.5-1.1l0.1-0.2
		c0.3-0.1,0.5,0,0.6,0.2c0.1,0.4,0,0.9-0.3,1.4c-0.2,0.4-0.4,1-0.8,1.7c-0.3,0.7-0.5,1.2-0.6,1.4c-0.1,0.1-0.1,0.1-0.1,0.2
		s-0.1,0.2-0.1,0.2c-0.2,0.5-0.4,0.9-0.5,1.1c-0.2,0.2-0.4,0.6-0.8,1.3c-0.2,0.3-0.3,0.5-0.5,0.8c-0.2,0.2-0.6,0.8-1.2,1.5
		c-0.1,0.1-0.1,0.1-0.1,0.2c0,0.1-0.1,0.2-0.1,0.3c-0.6,0.4-1.1,0.6-1.2,0.6c-0.5,0.2-1.1,0.4-1.8,0.5c-0.3,0.1-0.5,0.1-0.6,0.2
		c-0.5,0.2-1.1,0.2-1.9,0.2c-0.3-0.1-0.5-0.1-0.8-0.2c-0.2-0.1-0.3-0.2-0.5-0.2c-0.5-0.2-1.2-0.5-2.1-1.2c0.1,0,0.1-0.1,0.2-0.1
		c0.1-0.1,0.1-0.1,0.2-0.1c-0.2-0.2-0.3-0.5-0.5-0.8c-0.3-0.4-0.4-0.6-0.5-0.7c-0.6-1-1.1-2.2-1.5-3.5c-0.2-0.7-0.2-1.3-0.2-1.7
		c-0.1-0.3-0.1-0.8-0.1-1.3c0-0.6-0.1-1.1-0.1-1.4c-0.1-1.8-0.1-3-0.1-3.4c0-0.6,0.1-1,0.1-1.2c0.1-0.1,0.1-0.2,0-0.3
		c-0.2-0.4-0.2-0.9,0-1.6c0.2-1.3,0.5-2.4,0.7-3.2c0.1-0.1,0.2-0.1,0.3,0c0.2,0,0.2,0,0.3,0.1c0.6,0.2,1.1,0.3,1.3,0.4
		c0.1,0.1,0.2,0.2,0.4,0.2c0.3,0.1,0.6,0.3,1,0.7c0.2,0.2,0.2,0.3,0.3,0.3c0.4,0.3,0.8,0.9,1,1.8c0.1,0.2,0.1,0.4,0.2,0.7
		c0.1,0.3,0.2,0.5,0.2,0.8c0.1,0.2,0.2,0.5,0.2,0.6c0.1,0.1,0.1,0.3,0.1,0.4c0.1,0.2,0.1,0.3,0.1,0.4c0.1,0.4,0.1,0.7,0,0.9
		c-0.1,0.1-0.1,0.3,0,0.5c0,0.2,0.1,0.8,0.2,1.7c0.1,0.4,0.1,0.7,0.1,0.7c-0.1,0.9,0.1,1.7,0.4,2.6c0,0.1,0,0.2-0.1,0.3
		c0,0.1-0.1,0.2-0.1,0.3c0.1,0.2,0.1,0.3,0.1,0.5c0.1,0.3,0.1,0.5,0.2,0.9c0,0.1,0,0.2,0,0.3c-0.1,0.2-0.1,0.4,0,0.6
		c0.1,0.1,0.1,0.1,0.1,0.1c-0.1,0.6,0.1,1.2,0.4,1.8c0.1,0.1,0.1,0.2,0.1,0.5c0.1,0.4,0.3,0.7,0.6,0.8c0.1,0.1,0.3,0.1,0.5,0.2
		C-120.7,409-120.6,409-120.5,409z M-127,387.2c0,0.1,0,0.2,0,0.3c-0.4,0.2-0.7,0.2-0.9,0.2c-0.1-0.1-0.1-0.1-0.2-0.3
		c-0.1-0.2-0.2-0.2-0.3-0.3c-0.1,0-0.2-0.1-0.4-0.4c0-0.1-0.1-0.2-0.3-0.4c0.1-0.2,0.1-0.2,0.1-0.3c-0.1,0-0.1-0.1-0.1-0.2
		c-0.1-0.1-0.1-0.2-0.1-0.3c0.1-0.2,0.1-0.2,0.1-0.3c-0.1-0.1-0.1-0.1-0.1-0.2c0-0.1-0.1-0.2-0.1-0.2c0-0.1,0-0.2,0.1-0.3
		c0-0.2,0.1-0.3,0.1-0.3c-0.1-0.2-0.1-0.4-0.1-0.6c-0.1-0.4,0-0.9,0.1-1.4c0-0.1,0-0.3,0-0.8v-0.2c-0.1-0.5-0.1-0.8-0.1-0.8l0.1-0.8
		c0-0.1,0-0.1-0.1-0.1s-0.1-0.1-0.1-0.1c0.1-0.2,0.2-0.4,0.2-0.4c0-0.1,0-0.2,0-0.5c0.1,0,0.1-0.1,0.2-0.1c0.1-0.1,0.1-0.1,0.2-0.1
		c0.2-0.2,0.4-0.2,0.6-0.1c0.5,0.2,0.9,0.4,1.1,0.5c0.5,0.3,1,0.8,1.4,1.5c0.1,0.2,0.2,0.4,0.3,0.6c0.2,0.3,0.2,0.5,0.2,0.9
		c0,0.2,0,0.4,0.1,0.7c0.1,0.3,0.1,0.5,0.1,0.6c0.1,0.2,0.1,0.4,0.1,0.5c0,0.1,0,0.1,0,0.2c0,0.2,0,0.3,0,0.4
		c-0.1,0.2-0.1,0.4-0.1,0.6c0.1,0.2,0.1,0.5-0.1,0.9c0,0.1,0,0.1-0.1,0.2c-0.2,0.2-0.3,0.4-0.4,0.4c-0.1,0.2-0.2,0.3-0.4,0.3
		c-0.2,0.1-0.3,0.1-0.4,0.2c-0.2,0.2-0.3,0.2-0.4,0.2l-0.3,0.1C-126.8,387.2-126.8,387.2-127,387.2z"/>
</g>
</svg>
