<?xml version="1.0" encoding="utf-8"?>
<!-- Generator: Adobe Illustrator 18.1.1, SVG Export Plug-In . SVG Version: 6.00 Build 0)  -->
<!DOCTYPE svg PUBLIC "-//W3C//DTD SVG 1.1//EN" "http://www.w3.org/Graphics/SVG/1.1/DTD/svg11.dtd">
<svg version="1.1" id="Layer_1" xmlns="http://www.w3.org/2000/svg" xmlns:xlink="http://www.w3.org/1999/xlink" x="0px" y="0px"
	 width="360px" height="144px" viewBox="0 0 360 144" style="enable-background:new 0 0 360 144;" xml:space="preserve">
<style type="text/css">
	.st0{fill:none;}
	.st1{fill:#400100;}
	.st2{fill:#BE2704;}
	.st3{fill:#C64224;}
</style>
<g>
	<rect y="44.5" class="st0" width="360" height="64"/>
	<path class="st1" d="M93,87.1c0,4.1,1,4.7,5.8,4.9v1.1c-2-0.1-5.3-0.2-8.4-0.2c-3,0-5.7,0.1-7.3,0.2V92c3.9-0.2,4.6-0.8,4.6-4.9
		V58.8c0-4.1-0.8-4.7-4.6-4.9v-1.1c1.6,0.1,4.5,0.2,7,0.2c3.6,0,7.2-0.1,8.6-0.1c9.2,0,13.7,4.6,13.7,11.2c0,5.5-3.2,12.7-15,12.7
		H93V87.1z M93,58.8v16.9h3.8c8.1,0,9.9-5.2,9.9-11c0-7.2-2.6-10.8-9.5-10.8C93.7,53.9,93,54.9,93,58.8z"/>
	<path class="st1" d="M130.9,53.9c-3.9,0.2-4.6,0.8-4.6,4.9v28.3c0,4.1,0.8,4.7,4.6,4.7h4.2c7.1,0,8.5-2.7,9.4-10.7h1.3
		c-0.1,1.2-0.2,2.8-0.2,4.7c0,1.4,0.1,4.4,0.4,7.3c-3.9-0.2-9.2-0.2-13.1-0.2c-3.4,0-10.9,0-16.5,0.2V92c3.9-0.2,4.6-0.8,4.6-4.9
		V58.8c0-4.1-0.8-4.7-4.6-4.9v-1.1c1.6,0.1,4.3,0.2,7.3,0.2c2.6,0,5.5-0.1,7.2-0.2V53.9z"/>
	<path class="st1" d="M179.8,88.3c1.1,2.9,2.8,3.6,4,3.6v1.1c-1.6-0.1-4-0.2-6.1-0.2c-3,0-5.7,0.1-7.3,0.2V92c2.8-0.1,4-0.5,4-2.1
		c0-0.7-0.2-1.5-0.7-2.7l-3.5-9.4h-13.7l-2.3,6c-0.8,2-1.1,3.5-1.1,4.7c0,2.5,1.7,3.3,5,3.4v1.1c-2.2-0.1-4.6-0.2-6.6-0.2
		c-1.9,0-3.1,0.1-4.3,0.2V92c1.5-0.3,3.2-1.5,4.5-5L165,52.5h0.9L179.8,88.3z M163.4,59.7l-6.5,17h12.9L163.4,59.7z"/>
	<path class="st1" d="M220.5,53.9c-3.9,0.2-4.6,1.3-4.6,5.5v34h-1.3l-23.9-37v30.1c0,4.2,0.8,5.3,5.2,5.5v1.1
		c-1.4-0.1-3.9-0.2-5.8-0.2c-1.9,0-4,0.1-5.3,0.2V92c3.9-0.2,4.6-1.3,4.6-5.5V58.8c0-4.1-0.8-4.7-4.6-4.9v-1.1
		c1.3,0.1,3.4,0.2,5.3,0.2c1.7,0,3.2-0.1,4.5-0.2l20.1,31V59.4c0-4.2-0.7-5.3-5.2-5.5v-1.1c1.4,0.1,3.9,0.2,5.8,0.2
		c1.9,0,4-0.1,5.3-0.2V53.9z"/>
	<path class="st2" d="M236,77.6c0.6,0,1.5,0.1,2.7,0.4s2,0.4,2.5,0.4c0.6,0.3,1.1,0.9,1.4,1.9c-0.3,1.1-1.2,1.5-2.7,1.4
		c-0.4-0.3-0.9-0.6-1.4-0.6c-0.3,0-0.8,0-1.6,0c-0.3-0.1-1-0.1-1.8,0c-0.9,0.1-1.6,0-2.1-0.3c-0.5,0-1,0-1.6,0c-2,0-3.6-0.2-5.1-0.6
		c-1.8-0.5-2.6-1.3-2.6-2.3c0.4-0.4,1.2-0.6,2.6-0.6c0.5,0,1.9,0.1,4.2,0.2C232.5,77.6,234.4,77.6,236,77.6z"/>
	<path class="st2" d="M255.4,88.9c-0.6,1-1.6,2.5-3.1,4.4c-2.7,1.6-4.6,2.4-5.9,2.4c-1.2-0.1-2.6-1.1-4.1-3.1
		c-0.1-1.2-0.2-2.5-0.2-3.7c0-7.2,1.1-14.3,3.2-21.3c0.3-1.1,1.3-3.4,2.8-6.8c0.4-0.5,1-0.7,1.6-0.7c0.7,0,1.3,0.2,2,0.7
		c0.6,0.5,0.9,1,0.9,1.6c0,0.3-0.1,0.7-0.3,0.9c-1.2,2-2.4,4.6-3.5,7.8l-2.3,10.7c-0.5,2.3-0.6,5.1-0.3,8.5c0.1,0.4,0.5,1,1,1.6
		c0.3,0.1,0.7-0.2,1.2-0.7c0.5-0.5,0.9-0.8,1.1-0.9c0.8-0.5,2-1.6,3.4-3.2c1.4-1.6,2.7-2.6,3.8-3.1l2.4-2.8
		C258,85.6,256.7,88.1,255.4,88.9z M257.1,52.4l-0.3,0.2c-0.1,0.1-0.3,0.5-0.4,1c-3.3,0.3-5-0.5-5.3-2.4c0-1.1,0.4-1.8,1.1-2.1
		c0.3-0.1,1.1-0.1,2.5,0c0.3,0,0.8-0.1,1.3-0.3c0.5,0.2,1.1,0.8,1.8,1.9C257.9,51.3,257.6,51.9,257.1,52.4z"/>
	<path class="st2" d="M271.3,61.8c1.4,0.2,2.9,0.4,4.3,0.5c1.6,0.3,3,1,4,1.9l0.1,1.9c-1.1,0.1-3.1,0.1-5.9,0
		c-1.7-0.1-3.2,0-4.4,0.4c-4.5,8.6-6.6,15.8-6.4,21.5c0,0.8,0.1,1.6,0.4,2.3c0.2,0.7,0.9,1.1,2.1,1.1c0.7,0,1.5-0.1,2.5-0.4
		c0.8-0.1,2-0.6,3.7-1.6c1.7-1,3.3-1.6,4.8-1.6c-1.2,3.7-4.4,6.2-9.5,7.5c-0.6,0.1-1.2,0.2-1.6,0.2c-1.9,0-3.3-0.6-4.3-1.8
		c-1.2-2-1.9-4.4-2-7.1c-0.1-3.8,0.8-8.3,2.9-13.5c0.7-1.2,1.5-3.2,2.4-5.9c-2.4,0.1-4.5,1.2-6.2,3.4c-1.2,0.1-2.2-1-2.9-3.3
		c0.1-0.8,1-1.6,2.5-2.5c1-0.9,2.4-1.5,4.1-1.9c1.5-0.2,3-0.4,4.5-0.7c3.2-6.3,5.5-12.3,6.7-17.9c0.5-0.7,1-1,1.5-1
		c0.9-0.1,1.8,0.6,2.6,1.9c-0.2,4.7-2.1,10.1-5.6,16.2C271.5,61.7,271.4,61.8,271.3,61.8z"/>
</g>
<g>
	<g>
		<g>
			<g>
				<g>
					<path class="st3" d="M135,107.8c-0.1,0.1,0,0.3,0.2,0.2l0.1-0.3L135,107.8z"/>
					<path class="st3" d="M136.4,108.4c0.2-0.2,0.5-0.4,0.4-0.7c-0.2,0.3-0.3,0.2-0.6,0.6c-0.2,0-0.4-0.1-0.3-0.2
						c-0.1,0.1-0.3-0.1-0.4,0.1c0.3,0.3,0.6,0.3,1,0.1C136.5,108.3,136.4,108.4,136.4,108.4z"/>
					<path class="st3" d="M156.7,109l-0.1,0C156.6,108.9,156.6,109,156.7,109z"/>
					<path class="st3" d="M169.2,109.1c-0.1,0-0.1,0-0.1,0.1C169.2,109.2,169.3,109.2,169.2,109.1z"/>
					<path class="st3" d="M171.4,109.5c0,0-0.1,0-0.1,0C171.3,109.5,171.4,109.5,171.4,109.5z"/>
					<path class="st3" d="M156.7,109l0.3,0.1C157,109,156.8,109,156.7,109z"/>
					<path class="st3" d="M139.2,107.6c-0.1,0-0.1,0-0.2,0.1C139.1,107.7,139.1,107.7,139.2,107.6
						C139.2,107.7,139.2,107.7,139.2,107.6z"/>
					<path class="st3" d="M151.1,109.2l-0.1,0c0,0-0.1,0.1-0.1,0.1L151.1,109.2z"/>
					<path class="st3" d="M146.9,109.3c0.1,0,0.1-0.3,0.2-0.4c-0.1,0.1-0.1,0.2-0.2,0.2C146.8,109.1,146.9,109.2,146.9,109.3z"/>
					<path class="st3" d="M140.1,108.8l-0.1,0C140.1,108.8,140.1,108.8,140.1,108.8z"/>
					<path class="st3" d="M154.2,109.3c0,0,0,0.1,0,0.1C154.2,109.4,154.2,109.3,154.2,109.3z"/>
					<path class="st3" d="M273.1,107.2C273.1,107.2,273.1,107.2,273.1,107.2C273.1,107.2,273.1,107.2,273.1,107.2z"/>
					<path class="st3" d="M278,108.6L278,108.6c-0.1,0.1-0.1,0.1-0.1,0.2L278,108.6z"/>
					<path class="st3" d="M175.3,109.9C175.3,109.9,175.3,109.9,175.3,109.9C175.2,109.9,175.2,109.9,175.3,109.9z"/>
					<path class="st3" d="M211.4,109.7c-0.4-0.3,0.7-0.3,0-0.6C211.5,109.2,210.8,109.5,211.4,109.7z"/>
					<path class="st3" d="M139.3,107.7c0.1,0,0.1,0,0.2,0C139.4,107.7,139.3,107.7,139.3,107.7z"/>
					<path class="st3" d="M211.4,109.1C211.4,109.1,211.4,109.1,211.4,109.1L211.4,109.1C211.4,109,211.4,109.1,211.4,109.1z"/>
					<path class="st3" d="M184.4,109.7c0,0-0.1-0.1-0.1-0.1C184.3,109.6,184.3,109.6,184.4,109.7z"/>
					<path class="st3" d="M177.6,109.3l0.2,0C177.7,109.3,177.7,109.3,177.6,109.3z"/>
					<path class="st3" d="M187.9,109.3c0.1,0,0.1,0.1,0.2,0c0,0,0,0,0,0C188,109.3,188,109.3,187.9,109.3z"/>
					<path class="st3" d="M191.5,109.3C191.5,109.3,191.5,109.3,191.5,109.3c-0.1-0.1-0.1,0-0.2,0L191.5,109.3z"/>
					<path class="st3" d="M262,107.3c0.1,0.1,0.1,0.2,0.2,0.3C262.1,107.4,262.7,107.3,262,107.3z"/>
					<path class="st3" d="M139.2,107.8c0-0.1,0.1-0.1,0.1-0.1c0,0-0.1,0-0.1,0C139.2,107.7,139.2,107.8,139.2,107.8z"/>
					<path class="st3" d="M188,107.1l0.6,0C188.4,107.1,188.2,107.1,188,107.1z"/>
					<path class="st3" d="M235.9,107.4l0.1,0C236,107.3,235.9,107.3,235.9,107.4z"/>
					<path class="st3" d="M190.3,107.1c0.1,0.1,0.2,0.2,0.3,0.2c0,0,0.1,0,0.1-0.1L190.3,107.1z"/>
					<path class="st3" d="M262.2,107.6C262.2,107.6,262.2,107.6,262.2,107.6C262.2,107.6,262.2,107.6,262.2,107.6z"/>
					<path class="st3" d="M266,106.9c-0.6,0-0.3,0.4-0.4,0.6c-0.7,0.1-0.3-0.3-0.5-0.5c-0.4,0.1-0.7,0.4-1,0.4c0-0.1-0.1-0.1,0-0.2
						c-0.4,0.3-1.3,0-1.8,0.4c0,0-0.1-0.1-0.1-0.1c0.1,0.2,0.1,0.4,0.1,0.5c-0.2,0-0.5,0.2-0.6,0c0.2,0,0.2-0.1,0.2-0.2l-0.3,0.1
						c-0.2-0.3,0.4-0.1,0.4-0.4c-0.5,0.1-1.1,0.4-1.5,0.3c-0.1-0.3,0.9-0.1,0.4-0.4l0.6,0.1c-0.5-0.5,0.4,0-0.1-0.5
						c-0.8-0.1-0.9,0.2-1.7,0.1c-0.2,0.2,0.1,0.3-0.1,0.5c-1.1,0.3-0.9-0.9-1.7-0.4c-0.2,0.2-0.3,0.7-0.9,0.4l0.2-0.4
						c-0.8,0-0.4,0.6-1.2,0.3c0.1-0.2,0.6-0.1,0.5-0.2c-0.5-0.3-0.4,0.2-0.8,0.2l-0.1-0.3c-0.8,0.1-1.7,0.3-2.6,0.4
						c0-0.1,0.2-0.2,0-0.3c-1.1,0.2-2.4,0-3.5-0.2l-0.4,0.3c-0.1,0-0.2-0.1-0.1-0.2c-0.4-0.1,0,0.2-0.2,0.3c-0.2,0-0.3-0.2-0.2-0.3
						c-0.8,0.2-2.1,0.5-2.9,0.2l0.2-0.1c-0.6-0.1-0.7,0.6-1.3,0.3l0.1-0.1c-1.3-0.1-2.8,0.1-3.8-0.3c-0.2,0.4-1.3-0.2-1.4,0.4
						c-0.8-0.3-0.5-0.4-1.6-0.6c-0.3,0-0.4,0.4-0.8,0.4l0-0.3l-0.5,0.3l-0.3-0.4l-0.3,0.1c0.1,0,0.3,0.1,0.3,0.2
						c-0.5,0.1-1.3-0.2-1.3-0.4l-1.2,0.3c0-0.1,0.2-0.2,0.4-0.2c-0.7,0.3-0.1-0.3-0.7,0c0.1,0.1,0,0.2-0.1,0.2
						c-0.3-0.2-1-0.2-1.5-0.1l0.1-0.2c-0.9-0.1-1.9,0.1-3,0.1c0.4,0.1,0.3,0.5,0,0.5l-0.1-0.3c-0.2,0.2,0.3,0.1-0.1,0.4
						c-0.4,0-0.3-0.4,0-0.5l-0.5,0.1c0-0.1,0.1-0.1,0.1-0.3c-0.2,0.2-0.8-0.3-1.1,0l0-0.1c-1,0-1.5,0.1-2.3,0.1
						c0,0.3-0.3,0.2-0.6,0.4c-0.6-0.1-1.3-0.3-2-0.3c-0.5,0.1-0.2,0.2-0.4,0.4c0-0.3-0.8-0.2-0.4-0.4c-0.9,0-1.1,0.1-2.3,0.3
						c0.1,0.1,0.3,0.2,0.2,0.2c-0.2,0-0.5-0.1-0.4-0.2l0.1,0c-1.3,0.4-2.9-0.7-3.9-0.2l0.1,0l-1,0.3c-0.5,0,0.3-0.2-0.1-0.4
						c-1.1,0.4-1.8-0.1-2.7,0.2c-0.7-0.8-2.5,0.1-3.5-0.4l0.1,0.2c-0.2,0.2-0.3-0.1-0.5-0.1c0,0.1,0.3,0.2,0.1,0.3
						c-2.1,0.2-4.4-0.3-6.5-0.4c-0.8,0-0.5,0.9-1.5,0.5l0.3-0.3c-1.6,0.4-3.3,0-4.8,0.3c0.1-0.1,0.1-0.2,0.2-0.2
						c-0.3-0.2-1.2,0-1.2,0.2c-0.2,0-0.1-0.2-0.2-0.3c-0.3-0.1-0.8,0.3-1,0.1c0,0,0.1-0.1,0.2-0.1c-0.2,0.1-1,0-0.8,0.2
						c-0.6-0.1-1.1,0.1-1.6,0c-0.3,0.3-1-0.1-1.1,0.3c0-0.5-1-0.4-1.4-0.2c0.1-0.1-0.3-0.1-0.2-0.3c-0.4,0-0.8,0.1-0.7,0.3
						c-0.8-0.5-1.6,0.4-2-0.3c-1.3,0.2-2.4,0.4-3.6,0.5c0-0.5,1.3,0,1.2-0.5c-1.1,0.2-1.7,0.6-2.8,0.5c-0.3-0.1,0.2-0.2,0.3-0.3
						c-1.1,0.2-2.1,0-3,0.2c0,0,0.1-0.1,0.2-0.1c-0.2,0-0.4-0.1-0.4,0.1l0.2-0.1c0.3,0.3-0.7,0.6-0.8,0.8c0.3-0.6-0.9-0.1-0.4-0.9
						c-0.1,0-0.3,0.1-0.3,0.3c-0.2,0-0.2-0.1-0.1-0.3c-0.7,0.1-0.4,0.3-1,0.3c0-0.1,0.1-0.1,0.2-0.3c-0.3,0.2-0.6,0.4-1.1,0.3
						c0-0.1,0-0.1,0.1-0.1c-0.9,0-1.5,0.5-2.5,0.3c0.3-0.4-0.3-0.1-0.4-0.5l-0.5,0.1l0.2,0.2c-0.5,0-0.9,0.3-1.3,0.1l0.3-0.2
						l-0.9,0.1l0.5,0.1c-0.5,0.2,0,0.5-0.6,0.4c0.1,0-0.5,0-0.7-0.2c0,0,0,0,0,0c-0.2,0.1-0.5,0.2-0.8,0.2c-0.1-0.1,0.1-0.4,0-0.5
						c-0.2,0.3-1.1,0.1-1.4,0.4c0.1-0.1,0.1-0.3,0.1-0.3l-0.2,0.3c-0.2-0.1-0.2-0.1-0.2-0.3c-0.6,0,0.2,0.5-0.6,0.3
						c0.1,0,0-0.1,0.2-0.1c-0.8-0.1-1.5,0.2-2.2,0c-0.2-0.4,0.6-0.1,0.4-0.4c-1,0.1-2.1,0.5-3.1,0.4l0.2,0c-0.1,0.5-0.7-0.3-1.2,0
						c0.1,0,0.2-0.3,0.1-0.2c-0.7-0.1-1.4,0.1-2.4,0.3l0.1-0.1c-0.4-0.1-1-0.1-1.5-0.1c-0.1,0.1-0.4,0.1-0.2,0.3
						c-1.3-0.8-2.5,0.4-3.7-0.2c0.1,0,0.3-0.1,0.2-0.1l-1,0.1c0.1,0.2,0.1,0.1,0.3,0.3c-0.1,0.1-0.4,0.2-0.7,0.2
						c0.4-0.2,0-0.4-0.2-0.5c0,0.1,0,0.1,0,0.2c-0.5-0.4-0.1,0.5-0.8,0.2l0-0.1c-0.3,0.1-0.5,0.2-0.8,0.2c-0.1-0.3,0.3-0.1,0.3-0.3
						c-0.4,0-0.8,0.5-1.2,0.2c0.2-0.1,0.4-0.1,0.6-0.1c-0.4-0.3-0.4-0.2-0.7-0.3l0,0l-0.7-0.1l0.2,0.1c-0.5,0.7-1,0.1-1.7,0.6
						c0.7-0.4,0.1-0.2,0.2-0.6c-0.2-0.1-0.4-0.2-0.4-0.3c-0.3,0.2-0.5-0.2-1,0.2c0-0.1-0.3,0-0.3-0.3c-0.4,0.1,0.1,0.2,0.1,0.3
						c-0.6,0.3-1.5-0.4-2.4,0.1c-0.8,0.2-0.9,0.5-1.7,0.7c-0.2-0.2,0.2-0.4,0.2-0.4c-0.4-0.1-0.7-0.1-1.1,0c0.1-0.1,0-0.2-0.1-0.3
						c-0.3,0-0.2,0.4-0.6,0.2c0.1-0.1,0.2-0.3,0.3-0.4c-0.4,0.1-0.7,0.3-1.1,0.4c-0.1-0.2,0.2-0.3,0.4-0.4c-0.4,0.1-1.1,0.2-1.2,0.4
						l0.3,0.1c-0.2,0-0.1-0.2,0-0.3c0.4-0.2,0.5,0.1,0.5,0.2l-0.3,0.1c0.3,0.6,1.1-0.1,1.6-0.1l-0.2,0.4l0.5-0.3
						c0.1,0.1,0.2,0.3-0.1,0.4c0.4,0.2,0.3-0.1,0.7,0.1c0,0,0,0.1,0,0.1l0.4-0.1c-0.1,0.1,0.1,0.3-0.2,0.2c0.7,0.2,1.1-0.3,1.3,0
						l-0.1,0c0.9-0.1,0.1-0.3,0.8-0.7l0.5,0.8l0.1-0.3c0.1,0,0.3,0,0.2,0.2c0.4-0.2-0.1-0.1,0.1-0.3c0.5,0.3,1.3-0.1,1.4,0.4
						c0.2-0.2-0.4-0.2,0.1-0.3c0.1,0.5,0.6-0.1,1,0.2c-0.1,0.3-0.5,0.1-0.1,0.4c0.3-0.5,0.8,0.1,1.2,0c0-0.4,0.8-0.2,1.4-0.3
						c0,0.1,1.1,0.2,1.7,0.3l0,0.1c0.1-0.4,0.7-0.3,1.1-0.4c0,0.2-0.1,0.3-0.3,0.4l0.4,0c0.1-0.1,0.2-0.2,0.5-0.2l-0.1,0.3
						c0.5,0,1-0.3,1.7-0.1c0-0.3-0.5-0.7,0.2-0.9c0,0.1,0.1,0.4-0.1,0.4c0.1,0,0.2-0.1,0.3-0.1l-0.3,0.2c0.3,0.1,0.2-0.2,0.4-0.2
						c0,0.2,0.2,0.1,0.1,0.3c-0.1,0-0.2-0.1-0.3,0c0.3,0,0.6,0.2,0.7,0.3c0-0.1,0-0.3,0.2-0.3c0.5,0,0.2,0.2,0.5,0.3
						c0.1-0.1,0.5,0,0.5-0.3c0.2,0,0.2,0.1,0.2,0.2c0.3-0.1,1.3,0,1-0.4l-0.1,0c0,0,0,0,0,0c0,0,0,0,0,0h0c0.9-0.3,1.8,0.2,2.7,0
						l0,0.1c0.5-0.1,1.2-0.1,1.5-0.3c0.2,0,0.4,0.2,0.3,0.3c0.4-0.1,0.4-0.2,1,0c-0.4,0.2,0.1,0.2-0.4,0.1c0.5,0.1,0.6,0.2,1.2,0
						c-0.2,0.3,0.4,0.3,0.6,0.2l-0.4-0.2c0.3,0,0.5,0,0.8,0l-0.1,0.3c1.1,0.4,1.9-0.7,2.7,0c0.3-0.2-0.6-0.2-0.3-0.4
						c0.5,0,1,0.5,1.2,0.5c0.7,0.2,0.6-0.5,1.3-0.4c-0.1-0.1-0.2-0.4,0.3-0.5c0.5,0,0.6,0.5,0.3,0.6c-0.1,0-0.2,0-0.2-0.1
						c-0.2,0-0.4,0.1-0.2,0.2l0.1-0.1c0.2,0.1,0.9,0.1,0.8,0.3c0.4-0.1,0.2-0.2-0.1-0.3c0.6,0.2,1,0,1.6,0.1
						c-0.1-0.1-0.2-0.2-0.1-0.2c0.9,0.1,0.4-0.2,1.1-0.3c0.4,0.2-0.1,0.4,0.5,0.3c0.4,0.1,0.1,0.3-0.1,0.4c0.6-0.2,1.1,0.2,1.4,0.2
						l-0.3,0.1c0.2-0.1,0.3-0.1,0.5-0.1l-0.2-0.2c0.2,0,0.3,0,0.3,0.1c0.2-0.2-0.1-0.4,0.2-0.6c0.2,0.1,0.7-0.1,0.8,0.2
						c-0.8-0.1,0.1,0.3-0.6,0.4c0.1,0,0.3,0,0.5,0c0,0,0,0.1-0.1,0.1c0.7,0.3,0.3-0.4,1.1-0.3c-0.1,0.2,0.2,0.3,0.3,0.3
						c-0.3,0-0.1-0.3,0.1-0.4c0.5,0.1,0.5-0.1,0.8-0.1l-0.3-0.1c0.1-0.2,0.3-0.2,0.7-0.2c0,0.1-0.3,0.1-0.2,0.2
						c0.4-0.3,0.8,0.3,1.4,0.1c0.2,0.1,0,0.3,0.2,0.4c0.6-0.2,0.6,0.2,1.3,0.1c-0.2-0.2-0.2-0.2,0.2-0.4l-1,0.2l0.7-0.3
						c-0.3,0-0.6,0.1-0.8,0.1c0.3-0.2,0.3-0.1,0.1-0.3c0.4,0.4,0.8-0.2,1.3,0l0,0.6c0.7,0.3,1.3-0.3,2.2-0.2l-0.3-0.1
						c0.1-0.2,0.6,0,0.9-0.1c0,0.2,0.2,0.3,0.3,0.4c0-0.1,0.7,0,0.8-0.4l0.4,0.3c0.8,0.1,0.9-0.6,1.6-0.5c-0.2,0.2,0.1,0.4-0.4,0.5
						c0.2,0,0.5,0,0.5-0.1c0.1,0.1,0.7-0.3,0.9-0.1c0.1-0.1,0.1-0.3,0.4-0.3c0,0,0,0.1,0,0.1c0-0.1,0.4-0.1,0.2-0.4
						c0.8,0.6,2.1,0,2.8,0.5c0.5-0.1,1.2-0.1,1.7-0.1c0,0.1,0,0.1-0.1,0.1c0.7,0.2,0.4-0.6,1.2-0.4c0.4,0.3-0.4,0.2-0.2,0.3
						c0.1,0.6,0.9-0.1,1.4,0.3l-0.1,0c0.4,0.2,1-0.2,1.6-0.2c0,0,0,0.1,0,0.1c0.4-0.3,1.3-0.4,1.9-0.5c-0.2,0.3-0.3,0.1-0.2,0.4
						c0.3,0-0.1-0.4,0.5-0.5c0.2,0.1,0.6,0.3,0.6,0.5l-0.5,0c0.3,0.4,0.7,0,0.9,0l0,0.2c0.8-0.1,0.8-0.4,1.7-0.4l-0.1-0.1
						c0.5-0.4,0.4,0.2,0.9-0.1l0.1,0.4c0.3-0.1,1.1-0.4,1.6-0.5c-0.3,0.3-1,0.4-1.4,0.6c0.3,0,1,0,1.2-0.2c-0.1,0-0.3,0.1-0.4,0.1
						c0.4-0.3,0.9-0.5,1.5-0.5c-0.1,0.8,1.6,0.2,2,0.8c1.1-0.3,2.1,0.1,3.4,0.1c-0.4-0.6,0.4,0,0.3-0.6c0.3,0,0.4,0,0.4,0l0.9,0.4
						c0.2,0.2-0.3,0.1-0.3,0.3c0.6,0,0.3,0.3,0.7,0.4c-0.1-0.2,0.2-0.3,0.6-0.2l-0.5-0.3c0.9-0.3,0.8,0.5,1.7,0.2l-0.3,0.2
						c0.5-0.1,1.7,0,2.2-0.5c0.1,0.1,0.2,0.2,0,0.3c1.1,0.1,2.5-0.5,3.3-0.2l-0.1,0.1c0.2,0,0.4-0.3,0.6-0.1c0,0.1-0.1,0.1,0,0.2
						c0.1-0.1,0.5-0.3,0.8-0.2l-0.2,0.2c1.1,0.2,1.7-0.4,2.6-0.5c0,0.4,0.8,0.6,1.3,0.7l0,0.1c1.3,0.1,2.1-0.4,3.3-0.5
						c0.7,0.5,2.4,0.2,3.6,0.5c-0.2-0.1,0-0.3,0.2-0.4c0.3,0.1,0.8-0.3,0.7,0.1l-0.1,0c0.2,0.4,0.8,0.3,1.2,0.3l0.1-0.5
						c1.1,0.8,3-0.3,3.6,0.4c0.3-0.1,0.6-0.1,0.9-0.3l0,0.3c0.8,0.1,1.1,0.1,2.1,0l-0.2,0.2c0.5,0,0.7-0.8,1.2-0.8l0.1,0.4
						c0.9,0,1.9,0.4,2.8,0c0,0.1,0,0.2-0.2,0.2c0.4,0,1.7,0.3,1.5-0.3c0,0.4,1,0,1.5-0.1l-0.1,0.3c0.4-0.4,0.4-0.5,1-0.6
						c0.1,0,0.1,0.2-0.1,0.2c0.5,0.1,0.4-0.3,0.9-0.1l-0.2,0.2c0.5,0,0.4-0.1,0.7-0.3c0.3-0.1,0.9,0.1,1,0.3
						c0.1-0.2,0.3-0.4,0.6-0.3c0,0.1-0.1,0.2-0.1,0.2c0.8,0.2,1.2-0.3,1.8-0.1c0,0.1,0,0.1,0.1,0.2c-0.6,0-1.2,0-1.1,0
						c0,0.3,0.5,0.3,0.1,0.7c0.4-0.2,1.1-0.6,1.6-0.5c0,0,0,0,0.1,0.1l-0.1,0c0.1,0,0.2,0,0.3,0c0.2,0,0.3,0.1,0.4,0.1
						c0.1,0.2,0.6,0.1,0.8,0.1c0-0.3,0.3-0.2,0-0.5c0,0,0,0-0.2,0c0,0-0.1,0-0.1,0c0,0,0,0,0,0c-0.2,0-0.4,0-0.6,0
						c0.2-0.1,0.4-0.3,0.7-0.1c0.1-0.2,0.3-0.4,0.4-0.5c0.4,0.4,1,0.6,1.1,0.8c0.8-0.2,1.9-0.1,2.3-0.6c0.2-0.1,0.3,0.2,0.3,0.2
						c-0.1,0.1-0.3,0-0.4,0.1c0.4-0.1,1.3-0.1,1.4-0.4c0.6,0.2-0.3,0.3,0.5,0.3l-0.1,0.1c1.5,0.6,2.5-0.9,4.2-0.2
						c-0.1,0-0.2-0.1-0.2-0.1c1.9,0.3,4-0.3,5.9,0.2c0.5,0.1,0.6-0.1,0.9-0.3l0.1,0.3l0.6-0.3c0.8-0.3,1.4,0.7,2.4,0.3l-0.1-0.2
						c0.4,0,1.2-0.1,1.1,0.1c0,0,0.1-0.2,0.3-0.1l0,0.2l0.9-0.3c0.7,0.1-0.1,0.6,0.9,0.7c0.4-0.1,1.1-0.5,0.9-0.6
						c-0.2,0-0.4-0.1-0.4-0.3l0.3-0.1c0.1-0.5,0.3-0.9-0.5-1.3l-0.6,0.3l-0.2-0.2l0.5,0c-0.3-0.2-0.5,0-0.7,0.1
						c0-0.1-0.1-0.2-0.2-0.2l-0.6,0.4c-0.1-0.2,0.3-0.4-0.1-0.5c-0.3,0.2,0.3,0.4-0.2,0.5c-0.3-0.2-0.2-0.4-0.5-0.2
						c0-0.1,0-0.2,0.2-0.2c-0.3,0.1-0.8,0.1-0.9,0.3c-0.3-0.3-1,0.1-1-0.4c-0.1,0.1-0.5,0.3-0.8,0.4c0.5-0.5-1,0-0.9-0.6
						c-0.4,0.5-1.3,0.2-2,0.5c0,0,0.1-0.1,0.2-0.1c-0.4,0-0.5-0.2-0.7-0.3c0,0.4-0.6,0.5-0.9,0.7c-0.4-0.4,0.3-0.5,0.1-0.8
						c0,0.3-0.8,0.3-0.6,0.6c-0.3-0.2-0.3-0.1-0.5-0.4c-0.1,0.5-0.3,0.1-0.6,0.4c-0.5-0.2-0.1-0.5-0.7-0.3
						C265.5,107.1,266,106.9,266,106.9z M253.1,107.8C253.1,107.7,253.1,107.7,253.1,107.8c0.1,0,0.2,0,0.3,0
						C253.3,107.7,253.2,107.7,253.1,107.8z M252,107.8c0.1,0,0.3,0,0.5,0c0,0.1,0,0.2-0.1,0.2C252.4,107.9,252.2,107.8,252,107.8z
						 M254.3,109.7c-0.2,0-0.2,0-0.3-0.1c0.1,0,0.2,0,0.3,0c0,0,0,0,0,0C254.4,109.6,254.3,109.7,254.3,109.7z"/>
					<path class="st3" d="M254.6,109.3C254.6,109.3,254.7,109.3,254.6,109.3C254.7,109.3,254.6,109.3,254.6,109.3
						C254.6,109.3,254.5,109.3,254.6,109.3C254.6,109.3,254.6,109.3,254.6,109.3z"/>
					<path class="st3" d="M156.5,108.9L156.5,108.9C156.5,108.9,156.5,108.9,156.5,108.9C156.5,108.9,156.5,108.9,156.5,108.9z"/>
					<polygon class="st3" points="237.1,107.2 237.1,107.3 237.2,107.2 					"/>
					<path class="st3" d="M150.6,108C150.5,107.9,150.5,107.9,150.6,108C150.5,107.9,150.5,107.9,150.6,108z"/>
					<path class="st3" d="M148,107.9l-0.4-0.1C147.8,107.8,147.9,107.9,148,107.9z"/>
					<path class="st3" d="M146,107.8c0,0,0,0.1,0,0.1c0,0,0,0,0,0L146,107.8z"/>
					<path class="st3" d="M177.5,107.4C177.5,107.4,177.5,107.4,177.5,107.4C177.7,107.4,177.6,107.4,177.5,107.4z"/>
					<path class="st3" d="M168.1,108.1c0.1-0.1,0.2-0.1,0.3-0.1C168.2,107.9,168.1,107.9,168.1,108.1z"/>
					<path class="st3" d="M187.9,107.1C187.9,107.1,187.9,107.1,187.9,107.1C188,107.1,188,107.1,187.9,107.1L187.9,107.1z"/>
					<path class="st3" d="M168.9,107.9c-0.2-0.1-0.3,0-0.4,0C168.6,108,168.7,108,168.9,107.9z"/>
					<path class="st3" d="M137.4,107.6L137.4,107.6c-0.1,0-0.1,0-0.1,0L137.4,107.6z"/>
					<path class="st3" d="M137.3,107.7l-0.1,0C137.3,107.7,137.3,107.7,137.3,107.7z"/>
					<path class="st3" d="M137,107.8l0.2-0.1C137.1,107.7,137,107.7,137,107.8z"/>
					<path class="st3" d="M140,107.8l0-0.1C140.1,107.7,140.1,107.7,140,107.8z"/>
					<path class="st3" d="M140.8,107.7c-0.2,0-0.5-0.2-0.7-0.2l0,0.1C140.2,107.5,140.7,107.9,140.8,107.7z"/>
					<path class="st3" d="M144.2,109l-0.7-0.1c0.1,0.1,0.3,0.3,0,0.3C144.3,109.5,143.3,108.9,144.2,109z"/>
					<path class="st3" d="M146.2,109.1c-0.4,0.1,0,0.2,0,0.2C146.4,109.3,146.5,109.2,146.2,109.1z"/>
					<path class="st3" d="M161.2,109.1l0,0.3C161.4,109.4,161.2,109.3,161.2,109.1z"/>
					<polygon class="st3" points="164,107.8 163.8,107.7 163.7,107.9 					"/>
					<polygon class="st3" points="165.7,109.6 165.6,109.7 166.1,109.6 					"/>
					<path class="st3" d="M190.9,109.6l-0.1-0.3C190.6,109.3,190.5,109.6,190.9,109.6z"/>
					<path class="st3" d="M201.7,109.2c0.1,0.2,0.4,0.3,0.6,0.1C202.1,109.3,201.8,109.2,201.7,109.2z"/>
					<polygon class="st3" points="234.2,109.7 234,109.8 234.4,109.8 					"/>
				</g>
			</g>
		</g>
	</g>
</g>
<g>
	<polygon points="81,105.8 183,108 81,110.2 	"/>
</g>
<g>
</g>
<g>
</g>
<g>
</g>
<g>
</g>
<g>
</g>
<g>
</g>
<g>
</g>
<g>
</g>
<g>
</g>
<g>
</g>
<g>
</g>
<g>
</g>
<g>
</g>
<g>
</g>
<g>
</g>
</svg>
