<?xml version="1.0" encoding="utf-8"?>
<!-- Generator: Adobe Illustrator 18.1.1, SVG Export Plug-In . SVG Version: 6.00 Build 0)  -->
<!DOCTYPE svg PUBLIC "-//W3C//DTD SVG 1.1//EN" "http://www.w3.org/Graphics/SVG/1.1/DTD/svg11.dtd">
<svg version="1.1" id="Layer_1" xmlns="http://www.w3.org/2000/svg" xmlns:xlink="http://www.w3.org/1999/xlink" x="0px" y="0px"
	 width="396px" height="360px" viewBox="0 0 396 360" enable-background="new 0 0 396 360" xml:space="preserve">
<ellipse fill="#048C80" cx="199.1" cy="170.1" rx="169" ry="156.9"/>
<rect x="136" y="48.6" fill="none" width="311.9" height="308"/>
<g>
	<path fill="#FFFFFF" d="M167,281.7c-1-0.9-1.8-1.6-2.6-2.4c-25.1-25.1-50.3-50.3-75.4-75.4c-4.3-4.3-8.5-8.6-12.8-12.8
		c-1.5-1.5-1.7-2.4-0.1-4c12-11.8,23.9-23.7,35.6-35.7c2.1-2.1,3-1.1,4.5,0.4c15.8,15.8,31.6,31.5,47.3,47.4c2.6,2.6,3.9,3,6.7,0.1
		c38.7-39,77.6-77.7,116.4-116.7c2.5-2.5,3.7-2.4,6.1,0c11.2,11.5,22.6,22.8,34,34c1.9,1.9,2.4,2.9,0.2,5.1
		c-52.6,52.5-105.1,105-157.7,157.6C168.7,280.3,167.9,280.9,167,281.7z"/>
</g>
</svg>
